#!OML:ASF \\sashay\E\Suitcase\Project 1\Capture day 1\Session 1\Male1.ASF
:FULLY-SPECIFIED
:DEGREES
653
root 1.3704 17.081 -4.44845 2.12616 3.53296 4.31591
lowerback 5.01968 0.266531 -5.92035
upperback 1.27272 0.0493262 -0.233117
thorax -1.50611 0.0405902 3.07904
lowerneck -16.7437 0.946822 -1.57024
upperneck 26.2111 4.67682 -9.66047
head 11.5934 0.746173 -2.60953
rclavicle -1.83876e-015 -2.5842e-015
rhumerus -39.2669 -35.8249 -56.8812
rradius 9.76989
rwrist 4.29088
rhand -17.0242 17.119
rfingers 7.12502
rthumb 9.21198 -12.6598
lclavicle -1.83876e-015 -2.5842e-015
lhumerus -21.5016 -11.6235 81.649
lradius 38.8488
lwrist 1.43353
lhand -4.70359 43.4742
lfingers 7.12502
lthumb 21.0782 72.3485
rfemur -28.0106 0.957881 14.6748
rtibia 63.643
rfoot -18.0549 -10.1597
rtoes 8.29509
lfemur -10.9434 -3.0968 -32.0573
ltibia 27.1508
lfoot -24.159 -5.92141
ltoes 0.950164
654
root 1.37392 17.0652 -4.36813 1.7829 3.5836 4.35641
lowerback 5.22852 0.318228 -5.95825
upperback 1.13536 0.0944706 -0.329034
thorax -1.76932 0.0735574 2.99811
lowerneck -15.9784 0.763833 -1.38733
upperneck 25.9991 4.32164 -9.74744
head 11.3414 0.623845 -2.71613
rclavicle 2.65874e-015 -3.77691e-015
rhumerus -39.845 -35.8424 -56.6559
rradius 10.6624
rwrist 4.07922
rhand -16.8586 17.0796
rfingers 7.12502
rthumb 9.37176 -12.6921
lclavicle 2.65874e-015 -3.77691e-015
lhumerus -21.2853 -12.3347 81.8656
lradius 39.104
lwrist 1.03135
lhand -3.39037 45.3023
lfingers 7.12502
lthumb 22.3393 74.0309
rfemur -28.3723 1.40679 14.2737
rtibia 62.5446
rfoot -18.4876 -9.93641
rtoes 7.487
lfemur -10.3292 -3.05764 -32.2348
ltibia 27.2557
lfoot -24.3547 -5.26998
ltoes -0.662815
655
root 1.37385 17.0481 -4.29272 1.49942 3.44947 4.31238
lowerback 5.30303 0.261975 -6.01802
upperback 1.21758 0.0148494 -0.292229
thorax -1.71818 0.0309312 3.07514
lowerneck -16.283 0.878833 -1.52363
upperneck 25.8357 4.48398 -9.61389
head 11.3435 0.696786 -2.61589
rclavicle -5.14355e-015 1.09332e-014
rhumerus -38.8743 -36.0093 -57.2453
rradius 10.6892
rwrist 4.085
rhand -16.8096 17.2397
rfingers 7.12502
rthumb 9.41902 -12.5298
lclavicle -5.14355e-015 1.09332e-014
lhumerus -20.7785 -12.9665 81.9915
lradius 39.3896
lwrist 1.6189
lhand -4.11881 45.066
lfingers 7.12502
lthumb 21.6399 73.8767
rfemur -28.8759 1.77979 14.0394
rtibia 61.4962
rfoot -18.4639 -9.73059
rtoes 7.21876
lfemur -9.88926 -3.10945 -32.2955
ltibia 27.4865
lfoot -24.6109 -4.54853
ltoes -0.136414
656
root 1.3659 17.0521 -4.21355 1.29312 3.33379 4.46201
lowerback 5.35388 0.184593 -6.33644
upperback 1.13566 -0.113141 -0.318831
thorax -1.81799 -0.0267759 3.23512
lowerneck -16.3019 0.867459 -1.31344
upperneck 26.2822 4.42505 -9.51922
head 11.5136 0.684129 -2.63882
rclavicle -1.14922e-014 2.50469e-014
rhumerus -37.494 -33.7478 -59.4321
rradius 11.0828
rwrist 1.53032
rhand -16.7605 17.662
rfingers 7.12502
rthumb 9.46639 -12.1054
lclavicle -1.14922e-014 2.50469e-014
lhumerus -20.6234 -13.3186 82.0707
lradius 39.7866
lwrist 1.66758
lhand -4.2337 45.4139
lfingers 7.12502
lthumb 21.5295 74.2373
rfemur -29.3767 2.73776 13.5648
rtibia 60.2172
rfoot -18.8625 -9.75948
rtoes 8.03294
lfemur -9.27773 -3.05741 -32.4806
ltibia 27.4102
lfoot -24.8452 -4.03013
ltoes -0.833203
657
root 1.37059 17.0394 -4.13428 1.08664 3.27857 4.28574
lowerback 5.23434 0.208459 -6.28673
upperback 1.21749 -0.0652993 -0.257399
thorax -1.67128 -0.00939048 3.26727
lowerneck -16.1792 0.901556 -0.926377
upperneck 26.1906 4.43829 -9.83726
head 11.4697 0.696761 -2.81923
rclavicle 7.06928e-015 -1.80894e-014
rhumerus -37.2423 -35.3571 -58.8306
rradius 10.8755
rwrist 2.75813
rhand -16.6697 18.2517
rfingers 7.12502
rthumb 9.55402 -11.5117
lclavicle 7.06928e-015 -1.80894e-014
lhumerus -19.8311 -14.1257 82.3325
lradius 39.657
lwrist 1.80059
lhand -4.08974 45.4464
lfingers 7.12502
lthumb 21.6678 74.2539
rfemur -29.8277 2.85577 13.4924
rtibia 58.971
rfoot -18.558 -9.712
rtoes 5.46965
lfemur -8.77672 -3.42353 -32.3525
ltibia 27.4375
lfoot -24.7425 -3.81945
ltoes 1.76219
658
root 1.36905 17.0339 -4.05217 0.79384 3.26508 4.77
lowerback 5.26129 0.165976 -7.01083
upperback 1.29483 -0.159346 -0.237855
thorax -1.59324 -0.0581809 3.70026
lowerneck -16.2725 0.841632 -1.30714
upperneck 26.2328 4.49601 -9.91926
head 11.5081 0.669392 -2.77798
rclavicle 8.90804e-015 -1.45113e-014
rhumerus -35.7631 -33.1672 -60.8482
rradius 11.5983
rwrist 0.179599
rhand -16.7463 18.4528
rfingers 7.12502
rthumb 9.48018 -11.3139
lclavicle 8.90804e-015 -1.45113e-014
lhumerus -19.5606 -14.0533 82.7113
lradius 39.9047
lwrist 1.34801
lhand -4.16562 45.7587
lfingers 7.12502
lthumb 21.5949 74.5746
rfemur -30.0497 3.11196 12.6316
rtibia 57.6336
rfoot -18.4602 -9.27487
rtoes 7.70699
lfemur -7.94232 -3.79286 -32.9873
ltibia 27.2667
lfoot -24.9587 -3.14119
ltoes 1.92284
659
root 1.36765 17.0198 -3.97821 0.640228 2.93353 4.24213
lowerback 5.30419 0.232201 -6.39804
upperback 1.19114 -0.0458662 -0.242061
thorax -1.7394 0.00338215 3.34457
lowerneck -16.2036 0.955586 -1.29055
upperneck 26.2445 4.56185 -9.61032
head 11.4905 0.740182 -2.65547
rclavicle -5.66536e-015 1.86858e-014
rhumerus -35.5153 -33.7125 -61.1873
rradius 11.9026
rwrist 0.658256
rhand -16.8291 18.556
rfingers 7.12502
rthumb 9.40028 -11.2143
lclavicle -5.66536e-015 1.86858e-014
lhumerus -18.9607 -14.9447 82.7074
lradius 39.6188
lwrist 1.69834
lhand -4.07335 44.5292
lfingers 7.12502
lthumb 21.6835 73.335
rfemur -30.6454 3.61662 12.9909
rtibia 56.2127
rfoot -18.1427 -9.19552
rtoes 5.80881
lfemur -7.50046 -3.78902 -32.4507
ltibia 27.1427
lfoot -24.9049 -2.74556
ltoes 2.84401
660
root 1.36916 17.0224 -3.89897 0.515467 2.86782 4.37732
lowerback 5.24792 0.172408 -6.52125
upperback 1.10609 -0.132833 -0.320161
thorax -1.7867 -0.0360916 3.3385
lowerneck -14.9668 0.959262 -0.61114
upperneck 25.3184 4.36727 -10.1452
head 10.9035 0.724347 -2.96586
rclavicle 7.16867e-015 -8.84592e-015
rhumerus -34.3547 -31.6883 -63.089
rradius 12.4198
rwrist -1.97153
rhand -17.0232 18.856
rfingers 7.12502
rthumb 9.21297 -10.9227
lclavicle 7.16867e-015 -8.84592e-015
lhumerus -18.7964 -15.4763 82.9008
lradius 39.8662
lwrist 1.93827
lhand -4.11795 45.3228
lfingers 7.12502
lthumb 21.6407 74.1335
rfemur -31.0231 3.6687 12.6232
rtibia 54.799
rfoot -17.7605 -8.97424
rtoes 4.47488
lfemur -6.94589 -3.90842 -32.6656
ltibia 26.8362
lfoot -24.9012 -2.45358
ltoes 3.04232
661
root 1.36456 17.0109 -3.82281 0.16592 2.59442 3.88754
lowerback 5.47297 0.218564 -6.27584
upperback 1.06506 -0.0706894 -0.0520721
thorax -1.96182 0.000395405 3.47532
lowerneck -15.6682 1.02234 -1.67331
upperneck 26.1589 4.62482 -9.2561
head 11.3347 0.791237 -2.44494
rclavicle 6.64686e-015 -1.78906e-015
rhumerus -33.7699 -31.3143 -63.58
rradius 12.8566
rwrist -2.24507
rhand -16.8955 19.1375
rfingers 7.12502
rthumb 9.33621 -10.6358
lclavicle 6.64686e-015 -1.78906e-015
lhumerus -18.6966 -15.5444 83.2881
lradius 39.8893
lwrist 1.52424
lhand -3.94757 44.8429
lfingers 7.12502
lthumb 21.8043 73.6346
rfemur -31.1994 4.21589 13.0127
rtibia 53.2513
rfoot -17.52 -8.95368
rtoes 4.77231
lfemur -6.25723 -3.73771 -32.2025
ltibia 26.5541
lfoot -25.0427 -1.56055
ltoes 1.62336
662
root 1.371 16.9977 -3.73525 -0.0112909 2.48393 4.09638
lowerback 5.27297 0.193101 -6.45579
upperback 1.10446 -0.0993958 -0.10125
thorax -1.80561 -0.0188618 3.52673
lowerneck -15.1154 0.72851 -1.38896
upperneck 25.8579 4.19175 -9.7171
head 11.1047 0.59365 -2.71596
rclavicle -3.6154e-015 -3.37934e-015
rhumerus -32.5796 -29.9145 -64.9671
rradius 13.0875
rwrist -4.15382
rhand -16.9851 19.2558
rfingers 7.12502
rthumb 9.24976 -10.5213
lclavicle -3.6154e-015 -3.37934e-015
lhumerus -18.3821 -16.1355 83.4844
lradius 39.9669
lwrist 1.87565
lhand -3.58289 45.6082
lfingers 7.12502
lthumb 22.1545 74.3587
rfemur -31.4245 3.89333 12.5928
rtibia 51.6716
rfoot -16.9939 -8.54727
rtoes 6.01852
lfemur -5.51898 -3.83801 -32.5463
ltibia 26.1922
lfoot -24.8444 -1.16351
ltoes 1.94866
663
root 1.37586 17.0037 -3.65392 -0.223432 2.51816 4.04087
lowerback 5.15797 0.131469 -6.38577
upperback 1.22415 -0.164634 -0.114443
thorax -1.61049 -0.0606243 3.47732
lowerneck -15.6868 0.886473 -1.42357
upperneck 26.3931 4.44428 -9.47058
head 11.4292 0.697724 -2.60074
rclavicle -1.75676e-014 -1.25234e-014
rhumerus -31.8745 -31.1118 -65.0346
rradius 12.9436
rwrist -3.25059
rhand -16.9352 19.6923
rfingers 7.12502
rthumb 9.29782 -10.0827
lclavicle -1.75676e-014 -1.25234e-014
lhumerus -17.8892 -16.4017 83.6664
lradius 40.0373
lwrist 1.51617
lhand -3.61538 45.0769
lfingers 7.12502
lthumb 22.1233 73.8311
rfemur -31.5379 3.72941 12.492
rtibia 50.0038
rfoot -16.597 -8.3162
rtoes 4.67108
lfemur -4.73853 -4.23515 -32.5891
ltibia 25.9023
lfoot -24.9602 -0.873821
ltoes 4.19635
664
root 1.3683 17.012 -3.57152 -0.467406 2.23853 3.33052
lowerback 5.4501 0.097144 -5.84524
upperback 0.914155 -0.206363 0.159501
thorax -2.09189 -0.062218 3.46254
lowerneck -14.9155 1.0068 -1.46173
upperneck 26.1156 4.44295 -9.08126
head 11.1519 0.771948 -2.44021
rclavicle 6.39838e-015 -1.07344e-014
rhumerus -31.597 -29.7069 -65.9142
rradius 13.8274
rwrist -4.26324
rhand -16.9613 19.3456
rfingers 7.12502
rthumb 9.27273 -10.4305
lclavicle 6.39838e-015 -1.07344e-014
lhumerus -18.2353 -16.7097 84.071
lradius 39.9609
lwrist 1.81835
lhand -4.11317 45.3697
lfingers 7.12502
lthumb 21.6453 74.1798
rfemur -31.6243 4.32973 13.1648
rtibia 48.2475
rfoot -16.29 -8.52134
rtoes 5.78423
lfemur -3.90867 -4.15949 -31.8349
ltibia 25.3905
lfoot -24.8573 -0.403268
ltoes 2.77673
